<svg width="42" height="42" viewBox="0 0 42 42" fill="none" xmlns="http://www.w3.org/2000/svg">
<path d="M26.1968 8.3999H14.9633C11.3385 8.3999 8.40002 11.3384 8.40002 14.9632V26.1966C8.40002 29.8214 11.3385 32.7599 14.9633 32.7599H26.1967C29.8215 32.7599 32.76 29.8214 32.76 26.1966V14.9632C32.7601 11.3384 29.8216 8.3999 26.1968 8.3999Z" stroke="white" stroke-width="1.3" stroke-miterlimit="10"/>
<path d="M20.58 26.4602C23.8275 26.4602 26.4601 23.8277 26.4601 20.5802C26.4601 17.3328 23.8275 14.7002 20.58 14.7002C17.3326 14.7002 14.7 17.3328 14.7 20.5802C14.7 23.8277 17.3326 26.4602 20.58 26.4602Z" stroke="white" stroke-width="1.3" stroke-miterlimit="10"/>
<path d="M27.72 14.7002C28.4159 14.7002 28.98 14.1361 28.98 13.4402C28.98 12.7443 28.4159 12.1802 27.72 12.1802C27.0241 12.1802 26.46 12.7443 26.46 13.4402C26.46 14.1361 27.0241 14.7002 27.72 14.7002Z" fill="white"/>
<circle cx="21" cy="21" r="20.5" stroke="white"/>
</svg>
