<svg width="42" height="42" viewBox="0 0 42 42" fill="none" xmlns="http://www.w3.org/2000/svg">
<path d="M7.56 14.23C7.56 13.2206 8.25059 12.8222 9.10055 12.7691L13.0582 12.7957C13.2972 12.7957 13.5097 12.955 13.5894 13.1941C14.4925 16.1158 15.6081 17.922 16.9361 19.9672C17.0158 20.1266 17.1486 20.2062 17.2814 20.2062C17.3877 20.2062 17.4939 20.1531 17.5736 20.0203L17.6533 19.7281L17.6798 15.133C17.6798 14.469 17.3611 14.3628 16.6174 14.2565C16.3252 14.2034 16.1393 13.9378 16.1393 13.6722C16.1393 13.6191 16.1393 13.5659 16.1658 13.5128C16.5377 12.3707 17.7064 11.7863 19.3532 11.7863L20.8406 11.7598C22.0624 11.7598 23.178 12.291 23.178 13.8581V19.8875C23.2843 19.9672 23.3905 20.0203 23.5233 20.0203C23.7358 20.0203 24.0014 19.8875 24.2139 19.5422C25.5951 17.6032 27.1622 15.2924 27.3747 14.0706C27.3747 14.0175 27.4013 13.9909 27.4278 13.9378C27.72 13.3534 28.4637 12.955 28.7824 12.8488C28.8356 12.8222 28.9153 12.7957 29.0215 12.7957H33.1385L33.4041 12.8222C33.8025 12.8222 34.0947 13.0878 34.2275 13.3269C34.4666 13.6987 34.4134 14.0972 34.44 14.2565V14.4425C34.0416 16.8595 31.2792 19.5688 30.1105 21.3218C29.9511 21.5343 29.8715 21.7202 29.8715 21.9062C29.8715 22.0655 29.9511 22.2249 30.084 22.3843L33.9619 27.2715C34.1744 27.5637 34.2806 27.909 34.2806 28.2012C34.2806 29.0777 33.4572 29.5824 32.6604 29.6621L32.2089 29.6886H28.1715C28.0919 29.6886 28.0387 29.7152 27.959 29.7152C27.5075 29.7152 27.1356 29.4761 26.87 29.2105C26.0201 28.1746 25.1967 27.1122 24.3733 26.0763C24.2139 25.8638 24.1608 25.8372 24.0014 25.731C23.8155 26.5013 23.6561 27.2981 23.4702 28.0949L23.3905 28.5465C23.2577 29.0246 22.9124 29.5293 22.2749 29.6621L21.9031 29.6886H19.3001C14.705 29.6886 10.588 23.1545 7.6928 15.0002C7.61312 14.7878 7.56 14.4956 7.56 14.23ZM23.5233 21.1093C22.8327 21.1093 22.0624 20.7109 22.0624 19.9672V13.8581C22.0624 13.141 21.7437 12.8753 20.8672 12.8753L19.3532 12.9285C18.5032 12.9285 18.0251 13.0613 17.6267 13.3269C18.2376 13.6191 18.7954 14.0175 18.7954 15.133V19.8078C18.7157 20.7375 17.9455 21.3484 17.2017 21.3484C16.6971 21.3484 16.2455 21.0562 15.9799 20.5781C14.7847 18.7719 13.7753 17.072 12.8988 14.6284L12.6598 13.9378L9.12711 13.9112C8.64901 13.9112 8.70213 13.9378 8.70213 14.1768C8.70213 14.3362 8.72869 14.5487 8.75525 14.6815L9.31304 16.1689C12.2082 23.6592 15.8471 28.573 19.3001 28.573H21.9562C22.3281 28.573 22.3015 28.1215 22.3812 27.8559L22.8858 25.5185C22.9921 25.2794 23.0718 25.067 23.2577 24.881C23.4702 24.6685 23.7092 24.5889 23.9483 24.5889C24.453 24.5889 24.9311 24.9873 25.2498 25.3591L27.5075 28.2278C27.6934 28.5199 27.8528 28.573 27.959 28.573H32.3417C32.7666 28.573 33.1385 28.4402 33.1385 28.1746C33.1385 28.0949 33.1119 27.9887 33.0588 27.909L29.2074 23.1014C28.8887 22.703 28.7559 22.3046 28.7559 21.9062C28.7559 21.4812 28.9153 21.0562 29.1809 20.6844C30.2964 19.011 32.687 16.6205 33.2447 14.6549L33.3244 14.3096C33.2979 14.1768 33.2979 14.0706 33.2713 13.9378H29.1012C28.8356 14.044 28.6231 14.2034 28.4637 14.4159L28.3043 14.9206C27.6934 16.6205 26.0201 18.9579 24.8248 20.5781C24.4264 20.95 23.9749 21.1093 23.5233 21.1093Z" fill="white"/>
<circle cx="21" cy="21" r="20.5" stroke="white"/>
</svg>
