<svg width="62" height="48" viewBox="0 0 62 48" fill="none" xmlns="http://www.w3.org/2000/svg">
<g clip-path="url(#clip0_37_406)">
<path d="M25.3939 40.3765H37.0101L38.0202 47.2941H24.6869L25.3939 40.3765Z" fill="#C1A076"/>
<path d="M27.1919 29.1025H34.4646L35.1919 34.5883H26.7879L27.1919 29.1025Z" fill="#C1A076"/>
<path d="M28.7677 18.3933H33.0101L34.0606 23.9194H27.9192L28.7677 18.3933Z" fill="#C1A076"/>
<path d="M29.8586 8.93445H31.9798L32.6869 13.8555H29.2929L29.8586 8.93445Z" fill="#C1A076"/>
<path d="M62 47.7983L54.5454 47.8588L32.7475 0C33.2525 0.0403361 33.7374 0.0605042 34.2424 0.10084C43.4949 15.9933 52.7475 31.9059 62 47.7983Z" fill="#C1A076"/>
<path d="M0 47.9396L7.45455 48.0001L29.2323 0.141235C28.6667 0.181571 28.101 0.221908 27.5354 0.242076C18.3636 16.1345 9.19192 32.0471 0 47.9396Z" fill="#C1A076"/>
<path d="M31.1111 0.30249H30.8081L30.6263 4.86047H31.3535L31.1111 0.30249Z" fill="#C1A076"/>
</g>
<defs>
<clipPath id="clip0_37_406">
<rect width="62" height="48" fill="white"/>
</clipPath>
</defs>
</svg>
